<svg xmlns="http://www.w3.org/2000/svg" width="15" height="18" viewBox="0 0 15 18" fill="none">
<g clip-path="url(#clip0_22_583)">
<path d="M2.28353 4.2856V1.9636C2.28353 1.77869 2.43937 1.62978 2.62909 1.62978H6.25924C6.45066 1.62978 6.60481 1.77869 6.60481 1.9636V4.02869C6.75896 4.02706 6.91142 4.02542 7.06557 4.02378V1.9636C7.06557 1.53324 6.70306 1.18469 6.25924 1.18469H2.63079C2.18528 1.18469 1.82446 1.53487 1.82446 1.9636V4.34942C1.97014 4.32651 2.12429 4.30524 2.28522 4.2856H2.28353Z" fill="#092649"/>
<path d="M8.10553 4.02713V1.96531C8.10553 1.7804 8.26138 1.63149 8.4511 1.63149H12.0813C12.271 1.63149 12.4268 1.7804 12.4268 1.96531V4.25295C12.5861 4.27095 12.7402 4.28895 12.8876 4.31022V1.96531C12.8876 1.53495 12.5251 1.1864 12.0813 1.1864H8.4511C8.00559 1.1864 7.64478 1.53658 7.64478 1.96531V4.02549C7.79893 4.02549 7.95308 4.02549 8.10553 4.02877V4.02713Z" fill="#092649"/>
<path d="M0.930104 4.572V1.54473C0.930104 1.00473 1.38408 0.566182 1.94309 0.566182H13.0588C13.6179 0.566182 14.0718 1.00473 14.0718 1.54473V4.572C14.3124 4.62764 14.5055 4.68491 14.6579 4.74382V1.54473C14.6579 0.692182 13.9414 0 13.0588 0H1.94309C1.06054 0 0.343994 0.692182 0.343994 1.54473V4.74545C0.498144 4.68655 0.689562 4.62927 0.930104 4.57364V4.572Z" fill="#092649"/>
<path d="M15 6.98892V5.87129C15 4.54583 0 4.54583 0 5.87129V6.98892C0 5.99238 14.9966 5.99238 15 6.98892Z" fill="#092649"/>
<path d="M0 8.41587V15.8908V16.6337C0 17.339 0.669114 17.9248 1.51948 17.9951C1.57538 18 2.20045 18.0017 2.20045 18.0017H13.3077C14.2377 18.0017 15 17.3864 15 16.6337V8.41587C14.9966 7.41932 0 7.41932 0 8.41587Z" fill="#092649"/>
</g>
<defs fill="#092649">
<clipPath id="clip0_22_583" fill="#092649">
<rect width="15" height="18" fill="white"/>
</clipPath>
</defs>
</svg>