<svg width="51" height="43" viewBox="0 0 51 43" fill="none" xmlns="http://www.w3.org/2000/svg">
<g clip-path="url(#clip0_32_990)">
<path d="M48.4701 20.9865H2.39961C1.16542 20.9865 0.158936 21.9039 0.158936 23.0302V25.3009C0.158936 26.4272 1.16314 27.3446 2.39961 27.3446H3.5746V34.9563C3.5746 39.3162 6.29802 42.8609 9.6431 42.8609H40.7689C44.1163 42.8609 46.8397 39.3139 46.8397 34.9563V27.3446H48.4701C49.7043 27.3446 50.7108 26.4272 50.7108 25.3009V23.0302C50.7108 21.9039 49.7066 20.9865 48.4701 20.9865ZM45.018 24.4608V25.528H5.39629V24.4608C5.39629 23.8931 5.45322 23.339 5.56024 22.8031H44.7857C44.9406 23.3526 45.018 23.7886 45.018 24.4608ZM2.39961 25.528C2.14002 25.528 1.98062 25.3804 1.98062 25.3009V23.0302C1.98062 22.9507 2.14002 22.8031 2.39961 22.8031H3.7135C3.6247 23.3458 3.57688 23.8976 3.57688 24.4608V25.528H2.40189H2.39961ZM45.018 34.9563C45.018 38.3125 43.1121 41.0442 40.7689 41.0442H9.6431C7.29995 41.0442 5.39629 38.3125 5.39629 34.9563V27.3446H45.018V34.9563ZM48.8891 25.3009C48.8891 25.3804 48.7297 25.528 48.4701 25.528H46.8397V24.4608C46.8397 23.7931 46.7737 23.2845 46.6666 22.8031H48.4724C48.732 22.8031 48.8914 22.9507 48.8914 23.0302V25.3009H48.8891Z" fill="#092649"/>
<path d="M11.6516 11.3652C12.3301 13.5429 14.8668 14.6805 16.1124 14.9803C16.183 14.9984 16.2559 15.0052 16.3265 15.0052C16.7386 15.0052 17.1121 14.7259 17.2123 14.3081C17.3307 13.8199 17.0278 13.3294 16.5382 13.2136C15.4612 12.9547 13.7715 12.0441 13.3913 10.8247C13.1499 10.0504 13.471 9.1648 14.3477 8.19291C15.5454 6.86223 16.0578 5.48841 15.8688 4.10324C15.5705 1.90058 13.5643 0.592613 13.4778 0.538114C13.0565 0.267891 12.4964 0.390513 12.2231 0.810607C11.9499 1.2307 12.0705 1.79158 12.4895 2.06635C12.5032 2.07543 13.8854 2.99055 14.063 4.35756C14.1723 5.1864 13.8103 6.06746 12.9905 6.98031C11.3282 8.82645 11.3441 10.3842 11.6516 11.3652Z" fill="#092649"/>
<path d="M21.1359 11.3652C21.8145 13.5429 24.3512 14.6805 25.5968 14.9803C25.6674 14.9984 25.7403 15.0052 25.8108 15.0052C26.223 15.0052 26.5964 14.7259 26.6966 14.3081C26.815 13.8199 26.5122 13.3294 26.0226 13.2136C24.9455 12.9547 23.2559 12.0441 22.8756 10.8247C22.6343 10.0504 22.9553 9.1648 23.832 8.19291C25.0298 6.86223 25.5421 5.48841 25.3531 4.10324C25.0548 1.90058 23.0487 0.592613 22.9622 0.538114C22.5409 0.267891 21.9807 0.390513 21.7075 0.810607C21.4342 1.2307 21.5549 1.79158 21.9739 2.06635C21.9876 2.07543 23.3698 2.99055 23.5474 4.35756C23.6567 5.1864 23.2946 6.06746 22.4749 6.98031C20.8126 8.82645 20.8285 10.3842 21.1359 11.3652Z" fill="#092649"/>
<path d="M30.3237 11.3652C31.0023 13.5429 33.539 14.6805 34.7845 14.9803C34.8551 14.9984 34.928 15.0052 34.9986 15.0052C35.4107 15.0052 35.7842 14.7259 35.8844 14.3081C36.0028 13.8199 35.6999 13.3294 35.2104 13.2136C34.1333 12.9547 32.4437 12.0441 32.0634 10.8247C31.822 10.0504 32.1431 9.1648 33.0198 8.19291C34.2175 6.86223 34.7299 5.48841 34.5409 4.10324C34.2426 1.90058 32.2365 0.592613 32.1499 0.538114C31.7287 0.267891 31.1685 0.390513 30.8952 0.810607C30.622 1.2307 30.7427 1.79158 31.1617 2.06635C31.1753 2.07543 32.5575 2.99055 32.7351 4.35756C32.8444 5.1864 32.4824 6.06746 31.6626 6.98031C30.0003 8.82645 30.0163 10.3842 30.3237 11.3652Z" fill="#092649"/>
</g>
<defs>
<clipPath id="clip0_32_990">
<rect width="50.5518" height="42.4635" fill="white" transform="translate(0.158691 0.397339)"/>
</clipPath>
</defs>
</svg>
