<svg width="46" height="46" viewBox="0 0 46 46" fill="none" xmlns="http://www.w3.org/2000/svg">
<g clip-path="url(#clip0_32_998)">
<path d="M3.15247 3.20024L3.06528 3.28746L2.97809 3.37469C2.23986 4.15391 1.86203 5.17154 1.85622 6.18336C1.85622 7.18354 2.21661 8.17792 2.96065 8.92224L3.03622 9.00365L10.9939 16.5051C11.2497 16.7144 11.366 17.0691 11.2671 17.4064L5.01838 38.0789L8.31424 41.376L17.7368 24.3612C17.7717 24.2914 17.8182 24.2216 17.8763 24.1577C18.196 23.8204 18.7308 23.8029 19.0679 24.1228L29.0543 33.5373C29.3101 33.7467 29.4263 34.1014 29.3275 34.4328L27.3279 41.0387L29.6123 43.3241L33.3907 36.503L34.2103 34.8283C34.2916 34.6654 34.4195 34.5259 34.5939 34.4445L36.268 33.6246L43.0864 29.8448L40.802 27.5595L34.1812 29.5657C33.8848 29.6529 33.5476 29.5773 33.3209 29.3331L23.8751 19.3021C23.8286 19.2498 23.7879 19.1974 23.753 19.1335C23.5263 18.7264 23.6717 18.2147 24.0786 17.9879L41.1333 8.53263L37.8375 5.2355L17.1613 11.4925C16.8649 11.5797 16.5277 11.5041 16.301 11.2599L8.77926 3.27002L8.73857 3.22931C8.73857 3.22931 8.71532 3.20605 8.69788 3.19442C7.95384 2.4501 6.95986 2.08375 5.96005 2.08957C4.94863 2.08957 3.93139 2.47336 3.15247 3.21187M1.86784 2.08957L1.98991 1.97326C3.09434 0.938186 4.5301 0.403202 5.95424 0.397387C7.39 0.391572 8.81995 0.914926 9.89532 1.99071C9.91276 2.00815 9.92438 2.0256 9.94182 2.04304C9.96507 2.0663 9.98832 2.08957 10.0058 2.11283L17.1788 9.73053L37.8433 3.47936C38.1513 3.38632 38.471 3.47936 38.6861 3.6887L43.1329 8.13721C43.4642 8.46867 43.4642 9.00365 43.1329 9.33511C43.0574 9.41071 42.976 9.46886 42.883 9.50956L25.8573 18.9474L34.1986 27.8037L40.802 25.8033C41.1101 25.7103 41.4298 25.8033 41.6448 26.0127L45.0802 29.4494C45.4115 29.7808 45.4115 30.3158 45.0802 30.6473C45.0046 30.7228 44.9233 30.781 44.8303 30.8217L37.0934 35.1132C37.0934 35.1132 37.0469 35.1365 37.0178 35.1481L35.6053 35.8401L34.8962 37.288C34.8962 37.288 34.8845 37.3171 34.8729 37.3287L30.5482 45.1325C30.3215 45.5396 29.81 45.685 29.4031 45.4582C29.3333 45.4175 29.2694 45.3709 29.2171 45.3186L25.7817 41.8819C25.5492 41.6493 25.4794 41.312 25.5783 41.0213L27.5662 34.4503L18.7075 26.0999L9.2501 43.1787C9.0234 43.5857 8.51187 43.7311 8.10498 43.5043C8.03522 43.4636 7.97128 43.4171 7.91897 43.3648L3.47218 38.9221C3.23966 38.6895 3.16991 38.3522 3.26873 38.0614L9.51167 17.4238L1.89109 10.2306L1.77484 10.1201C0.693657 9.04436 0.170505 7.61386 0.176317 6.17754C0.18213 4.75286 0.716908 3.31654 1.75159 2.2175C1.82134 2.14772 1.85622 2.10701 1.86784 2.09538V2.08957Z" fill="#092649"/>
</g>
<defs>
<clipPath id="clip0_32_998">
<rect width="45.1596" height="45.1596" fill="white" transform="translate(0.17627 0.397339)"/>
</clipPath>
</defs>
</svg>
