<svg width="50" height="50" viewBox="0 0 50 50" fill="none" xmlns="http://www.w3.org/2000/svg">
<path d="M24.785 49.5491C11.4418 49.5491 0.631958 38.7393 0.631958 25.4038C0.631958 12.0683 11.4418 1.25073 24.785 1.25073C38.1283 1.25073 48.9381 12.0606 48.9381 25.4038" stroke="white" stroke-width="0.777126" stroke-miterlimit="10" stroke-linecap="square"/>
<path d="M24.785 1.25073V5.00425" stroke="white" stroke-width="0.777126" stroke-miterlimit="10" stroke-linecap="square"/>
<path d="M24.785 45.8033V49.5491" stroke="white" stroke-width="0.777126" stroke-miterlimit="10" stroke-linecap="square"/>
<path d="M7.7038 8.32263L10.3616 10.9804" stroke="white" stroke-width="0.777126" stroke-miterlimit="10" stroke-linecap="square"/>
<path d="M0.631958 25.4038H4.38548" stroke="white" stroke-width="0.777126" stroke-miterlimit="10" stroke-linecap="square"/>
<path d="M45.1846 25.4038H48.9303" stroke="white" stroke-width="0.777126" stroke-miterlimit="10" stroke-linecap="square"/>
<path d="M7.7038 42.4773L10.3616 39.8273" stroke="white" stroke-width="0.777126" stroke-miterlimit="10" stroke-linecap="square"/>
<path d="M39.2085 10.9804L41.8585 8.32263" stroke="white" stroke-width="0.777126" stroke-miterlimit="10" stroke-linecap="square"/>
<path d="M35.2141 14.9749L27.0543 23.1347" stroke="white" stroke-width="0.777126" stroke-miterlimit="10" stroke-linecap="square"/>
<path d="M22.6324 23.0259L18.4592 18.9304" stroke="white" stroke-width="0.777126" stroke-miterlimit="10" stroke-linecap="square"/>
<path d="M27.9868 25.4037C27.9868 27.1756 26.5491 28.6133 24.7773 28.6133C23.0054 28.6133 21.5677 27.1756 21.5677 25.4037C21.5677 23.6319 23.0054 22.1942 24.7773 22.1942C26.5491 22.1942 27.9868 23.6319 27.9868 25.4037Z" stroke="white" stroke-width="0.777126" stroke-miterlimit="10" stroke-linecap="square"/>
<path d="M30.1084 33.9833V31.9473H37.4755V34.7061L30.3959 43.5109V46.9613H37.4755" stroke="white" stroke-width="0.777126" stroke-miterlimit="10" stroke-linecap="square"/>
<path d="M40.9881 31.9473V39.4543H47.0575" stroke="white" stroke-width="0.777126" stroke-miterlimit="10" stroke-linecap="square"/>
<path d="M47.6559 31.9473V46.9613" stroke="white" stroke-width="0.777126" stroke-miterlimit="10" stroke-linecap="square"/>
</svg>
