<svg width="34" height="46" viewBox="0 0 34 46" fill="none" xmlns="http://www.w3.org/2000/svg">
<g clip-path="url(#clip0_65_2)">
<path d="M32.0229 0H1.9771C0.887128 0 0 0.867087 0 1.93244V44.0676C0 45.1329 0.887128 46 1.9771 46H32.0229C33.1129 46 34 45.1329 34 44.0676V1.93244C34 0.867087 33.1129 0 32.0229 0ZM23.5132 2.59482H10.7226V0.666247H23.5132V2.59482ZM10.7233 3.26171H23.5138V8.33484H10.7233V3.26171ZM33.3184 9.00045V31.7146L30.1143 27.4165C30.0036 27.2678 29.7903 27.235 29.6381 27.3432C29.486 27.4513 29.4524 27.6599 29.563 27.8086L33.3184 32.8456V34.8862L30.0148 30.4549C29.9042 30.3062 29.6908 30.2734 29.5387 30.3815C29.3865 30.4896 29.3529 30.6982 29.4643 30.8469L33.2848 35.9715L33.319 36.0069V38.1473L29.6691 33.2647C29.5578 33.116 29.345 33.0838 29.1929 33.192C29.0408 33.3008 29.0078 33.5087 29.1185 33.6574L33.3184 39.2764V41.55L29.4392 36.2264C29.3299 36.0765 29.1172 36.0417 28.9637 36.1479C28.8103 36.2548 28.7747 36.4627 28.8834 36.6127L33.2854 42.654L33.3177 42.6887V43.1213H0.681647V9.00045H33.3184ZM33.3184 1.93244V8.3342H24.1955V0.666247H32.0229C32.7375 0.666247 33.3184 1.234 33.3184 1.93244ZM1.9771 0.666247H10.0416V2.8536L10.0324 2.92827L10.0416 3.00294V8.33484H0.681647V1.93244C0.681647 1.234 1.26253 0.666247 1.9771 0.666247ZM32.0229 45.3338H1.9771C1.26253 45.3338 0.681647 44.766 0.681647 44.0676V43.7895H33.3184V44.0676C33.3184 44.7654 32.7375 45.3338 32.0229 45.3338Z" fill="#174365"/>
<path d="M2.45467 7.28816H8.22858C8.65139 7.28816 8.99452 6.95214 8.99452 6.53952V5.46258H8.98728C8.99189 5.42718 8.99452 5.39177 8.99452 5.35572V2.77313C8.99452 2.30129 8.602 1.91763 8.11925 1.91763H2.56399C2.08124 1.91763 1.68872 2.30129 1.68872 2.77313V5.35572C1.68872 5.39242 1.69201 5.42782 1.69662 5.46258H1.68872V6.53952C1.68872 6.95279 2.03251 7.28816 2.45467 7.28816ZM8.31354 6.53888C8.31354 6.58329 8.27468 6.62127 8.22923 6.62127H2.45467C2.40922 6.62127 2.37037 6.58329 2.37037 6.53888V6.20607L2.45467 6.21058H8.22858L8.31288 6.20607V6.53888H8.31354ZM2.37037 2.77185C2.37037 2.66885 2.45928 2.58259 2.56399 2.58259H8.11925C8.22397 2.58259 8.31288 2.66885 8.31288 2.77185V5.35444C8.31288 5.45743 8.22397 5.54369 8.11925 5.54369H2.56399C2.45928 5.54369 2.37037 5.45679 2.37037 5.35444V2.77185Z" fill="#174365"/>
<path d="M14.8376 5.41044C14.833 5.37375 14.8271 5.33706 14.8205 5.30036L14.8093 5.24501C14.8007 5.20767 14.7908 5.17033 14.7796 5.13364L14.7671 5.09116C14.7507 5.04095 14.7322 4.99202 14.7118 4.94375L14.7006 4.91928C14.6822 4.87873 14.6624 4.83882 14.6413 4.79955L14.6203 4.76286C14.5999 4.72681 14.5781 4.69205 14.5551 4.65794L14.5346 4.62768C14.5057 4.58584 14.4747 4.54593 14.4418 4.50666L14.4385 4.50216C14.4023 4.45903 14.3641 4.41783 14.3232 4.37856L14.318 4.37406C14.2824 4.3393 14.2449 4.30582 14.2054 4.27428L14.1724 4.24853C14.1421 4.22471 14.1112 4.20218 14.0796 4.18094L14.0341 4.15004L13.9472 4.09855L13.8912 4.067L13.8109 4.02902C13.7628 4.00649 13.7134 3.98654 13.6627 3.96852L13.6225 3.95371H13.6185C13.4381 3.89384 13.2451 3.86037 13.0442 3.86037C12.0478 3.86037 11.2371 4.65279 11.2371 5.62673C11.2371 5.70591 11.2443 5.7838 11.2548 5.8604V5.86362L11.2575 5.87842C11.2647 5.9267 11.2733 5.97498 11.2845 6.02197L11.2871 6.03098C11.3747 6.3934 11.5762 6.71332 11.8542 6.9515L11.8588 6.956C11.8957 6.98755 11.9339 7.01716 11.9727 7.04548L11.9872 7.05642C12.0241 7.08282 12.0623 7.10728 12.1018 7.1311L12.1255 7.14526C12.163 7.16714 12.2006 7.1871 12.2401 7.20641L12.2743 7.2225C12.3112 7.23924 12.3481 7.25533 12.3863 7.27014L12.4331 7.28688C12.4686 7.29911 12.5035 7.31134 12.5398 7.32164L12.6043 7.33773C12.6366 7.34545 12.6682 7.35382 12.7011 7.36026C12.7314 7.36605 12.7617 7.36992 12.7927 7.37378L12.8691 7.38408C12.9264 7.38987 12.985 7.39244 13.0436 7.39244C14.04 7.39244 14.8508 6.60003 14.8508 5.62609C14.8508 5.57073 14.8475 5.51665 14.8422 5.46258L14.8356 5.41108L14.8376 5.41044ZM13.0449 4.52597C13.0923 4.52597 13.1384 4.52984 13.1839 4.53499C13.145 5.10725 12.6577 5.56107 12.0623 5.56107C12.0162 5.56107 11.9694 5.55528 11.9233 5.54948C11.9635 4.97851 12.4502 4.52533 13.0449 4.52533V4.52597ZM13.0449 6.72555C13.0001 6.72555 12.956 6.72234 12.9119 6.71719L12.8776 6.71204C12.844 6.70689 12.8111 6.70109 12.7782 6.69337L12.7479 6.68564C12.7097 6.67534 12.6728 6.66376 12.6359 6.6496L12.6267 6.64638C12.5417 6.6129 12.4614 6.56977 12.3883 6.51763H12.3876C12.3507 6.49124 12.3165 6.46292 12.2829 6.43331L12.2809 6.43138C12.2138 6.37087 12.1545 6.30199 12.1038 6.22732C12.9494 6.20865 13.6534 5.61836 13.8273 4.83753L13.8332 4.84333L13.8708 4.88259L13.9083 4.9225L13.9393 4.96177L13.9742 5.00747L14.0025 5.05189L14.0315 5.09824L14.0605 5.15617L14.0796 5.19415L14.1085 5.2714L14.1178 5.29586C14.1276 5.32676 14.1362 5.35894 14.1434 5.39113L14.1461 5.40207C14.1533 5.43748 14.1593 5.47352 14.1632 5.50957V5.51215C14.1678 5.54948 14.1698 5.58682 14.1698 5.6248C14.1698 6.23118 13.6653 6.72491 13.0442 6.72491L13.0449 6.72555Z" fill="#174365"/>
<path d="M18.7536 5.41044C18.749 5.37375 18.7431 5.33706 18.7365 5.30036L18.7253 5.24501C18.7167 5.20767 18.7068 5.17033 18.6956 5.13364L18.6831 5.09116C18.6667 5.04095 18.6482 4.99138 18.6278 4.9431L18.6166 4.91993C18.5982 4.87873 18.5784 4.83818 18.5567 4.79891L18.5363 4.76286C18.5158 4.72681 18.4935 4.69141 18.4704 4.65665L18.4506 4.62704C18.421 4.58455 18.3901 4.544 18.3571 4.50473L18.3551 4.50216C18.3189 4.45903 18.2801 4.41719 18.2392 4.37792L18.2359 4.3747C18.1997 4.3393 18.1615 4.30582 18.122 4.27364L18.0904 4.24853C18.0601 4.22471 18.0285 4.20154 17.9962 4.17965L17.9514 4.15004C17.9224 4.13138 17.8928 4.114 17.8632 4.09726L17.8092 4.067L17.7229 4.02645C17.6768 4.00521 17.6294 3.98654 17.5813 3.96916L17.5398 3.95371H17.5359C17.3554 3.89384 17.1624 3.86037 16.9622 3.86037C15.9658 3.86037 15.155 4.65279 15.155 5.62673C15.155 5.70655 15.1623 5.78444 15.1728 5.86104V5.86362L15.1754 5.87585C15.1827 5.92541 15.1913 5.97434 15.2031 6.02261L15.2044 6.02841C15.292 6.39275 15.4942 6.71332 15.7728 6.95214L15.7767 6.95536C15.8136 6.9869 15.8518 7.01651 15.8913 7.04484L15.9052 7.05514C15.9427 7.08153 15.9809 7.10663 16.0204 7.12981L16.0441 7.14397C16.0817 7.16586 16.1199 7.18646 16.1587 7.20512L16.1923 7.22122C16.2292 7.2386 16.2667 7.25469 16.3049 7.26949L16.3517 7.28623C16.3873 7.29846 16.4222 7.31069 16.4584 7.32099L16.5229 7.33709C16.5552 7.34481 16.5868 7.35318 16.6197 7.35961C16.65 7.36541 16.6803 7.36927 16.7113 7.37313L16.7877 7.38343C16.845 7.38923 16.9036 7.3918 16.9629 7.3918C17.9593 7.3918 18.7701 6.59939 18.7701 5.62544C18.7701 5.57008 18.7668 5.51601 18.7615 5.46194L18.7556 5.41044H18.7536ZM16.9616 4.52597C17.0083 4.52597 17.0551 4.52984 17.1005 4.53499C17.0617 5.10725 16.5743 5.56107 15.9789 5.56107C15.9328 5.56107 15.8861 5.55528 15.84 5.54948C15.8801 4.97851 16.3668 4.52533 16.9616 4.52533V4.52597ZM16.9616 6.72555C16.9168 6.72555 16.8726 6.72234 16.8285 6.71719L16.7949 6.71204C16.7613 6.70689 16.7278 6.70109 16.6955 6.69337L16.6652 6.68564C16.627 6.67534 16.5895 6.66376 16.5532 6.6496L16.5447 6.64638C16.4597 6.6129 16.3794 6.56977 16.3056 6.51763C16.2687 6.49124 16.2338 6.46292 16.2002 6.43331L16.1989 6.43202C16.1317 6.37151 16.0725 6.30263 16.0217 6.22732C16.8674 6.20801 17.5714 5.61836 17.7453 4.83753L17.7512 4.84333L17.7894 4.88324L17.8263 4.9225L17.8579 4.9637L17.8922 5.00812L17.9224 5.05575L17.9495 5.09953L17.9804 5.16132L17.9975 5.19544L18.0285 5.27655L18.0357 5.2965C18.0463 5.32869 18.0548 5.36152 18.0621 5.39499L18.064 5.40272C18.0792 5.47481 18.0878 5.54948 18.0878 5.62544C18.0878 6.23182 17.5826 6.72555 16.9622 6.72555H16.9616Z" fill="#174365"/>
<path d="M22.6327 5.46258L22.6267 5.41108C22.6221 5.37439 22.6162 5.3377 22.6096 5.30101L22.5984 5.24565C22.5899 5.20831 22.58 5.17098 22.5688 5.13429L22.5563 5.0918C22.5398 5.04159 22.5214 4.99267 22.5009 4.94439L22.4898 4.91993C22.4713 4.87937 22.4522 4.83946 22.4305 4.8002L22.4094 4.7635C22.389 4.72746 22.3666 4.6927 22.3442 4.65858L22.3238 4.62832C22.2948 4.58648 22.2639 4.54657 22.2309 4.5073L22.2276 4.5028C22.1914 4.45967 22.1532 4.41847 22.1124 4.37921L22.1071 4.3747C22.0709 4.33994 22.0333 4.30647 21.9945 4.27492L21.9616 4.24917C21.9313 4.22536 21.9003 4.20283 21.8687 4.18158L21.8233 4.15069L21.7363 4.09919L21.6803 4.06765L21.6 4.02967C21.5519 4.00714 21.5025 3.98718 21.4518 3.96916L21.4116 3.95435H21.4077C21.2272 3.89449 21.0343 3.86101 20.834 3.86101C19.8376 3.86101 19.0269 4.65343 19.0269 5.62737C19.0269 5.70655 19.0341 5.78444 19.0446 5.86104V5.86426L19.0473 5.87907C19.0545 5.92734 19.0631 5.97562 19.0743 6.02261L19.0769 6.03163C19.1645 6.39404 19.366 6.71397 19.6433 6.95214L19.6479 6.95665C19.6848 6.98819 19.723 7.0178 19.7618 7.04612L19.7763 7.05707C19.8139 7.08346 19.8521 7.10792 19.8909 7.13174L19.9146 7.1459C19.9522 7.16779 19.9904 7.18774 20.0292 7.20705L20.0635 7.22315C20.1004 7.23988 20.1372 7.25598 20.1754 7.27078L20.2229 7.28752C20.2578 7.29975 20.2933 7.31198 20.3296 7.32228L20.3941 7.33837C20.4264 7.3461 20.458 7.35446 20.4909 7.3609C20.5212 7.3667 20.5515 7.37056 20.5825 7.37442L20.6589 7.38472C20.7162 7.39051 20.7748 7.39309 20.834 7.39309C21.8305 7.39309 22.6412 6.60067 22.6412 5.62673C22.6412 5.57137 22.6379 5.5173 22.6327 5.46322V5.46258ZM20.834 4.52597C20.8808 4.52597 20.9276 4.52984 20.973 4.53498C20.9341 5.10725 20.4468 5.56107 19.8514 5.56107C19.8053 5.56107 19.7586 5.55528 19.7125 5.54948C19.7526 4.97851 20.2393 4.52533 20.834 4.52533V4.52597ZM20.834 6.72555C20.7893 6.72555 20.7451 6.72233 20.701 6.71719L20.6674 6.71203C20.6338 6.70689 20.6002 6.70109 20.568 6.69337L20.5377 6.68564C20.4995 6.67534 20.4626 6.66376 20.4257 6.6496L20.4165 6.64638C20.3315 6.6129 20.2512 6.56977 20.1781 6.51763H20.1774C20.1405 6.49124 20.1063 6.46292 20.0727 6.43331L20.0707 6.43138C20.0036 6.37087 19.9443 6.30199 19.8936 6.22732C20.7392 6.20865 21.4432 5.61836 21.6171 4.83753L21.623 4.84333L21.6606 4.88259L21.6981 4.9225L21.7291 4.96177L21.764 5.00747L21.7923 5.05189L21.8213 5.09824L21.8503 5.15617L21.8694 5.19415L21.8983 5.2714L21.9076 5.29586C21.9174 5.32676 21.926 5.35894 21.9332 5.39113L21.9359 5.40207C21.9431 5.43748 21.949 5.47352 21.953 5.50957V5.51215C21.9569 5.54948 21.9589 5.58682 21.9589 5.6248C21.9589 6.23118 21.4538 6.72491 20.8334 6.72491L20.834 6.72555Z" fill="#174365"/>
<path d="M25.4693 5.65312H31.9677C32.156 5.65312 32.3082 5.50378 32.3082 5.31968V2.27103C32.3082 2.08693 32.1554 1.93759 31.9677 1.93759H25.4693C25.281 1.93759 25.1282 2.08693 25.1282 2.27103V5.31968C25.1282 5.50378 25.281 5.65312 25.4693 5.65312ZM25.8098 3.93826H26.7575V4.98687H25.8098V3.93826ZM28.4712 3.93826V4.98687H27.4398V3.93826H28.4712ZM30.1842 3.93826V4.98687H29.1529V3.93826H30.1842ZM30.8659 4.98687V3.93826H31.6265V4.98687H30.8659ZM31.6272 2.60448V3.27201H25.8105V2.60448H31.6272Z" fill="#174365"/>
<path d="M25.4693 6.42751C25.281 6.42751 25.1282 6.57685 25.1282 6.76096C25.1282 6.94506 25.281 7.0944 25.4693 7.0944H32.1238C32.3121 7.0944 32.4649 6.94506 32.4649 6.76096C32.4649 6.57685 32.3121 6.42751 32.1238 6.42751H25.4693Z" fill="#174365"/>
<path d="M16.9998 30.7587C20.5147 30.7587 23.3644 27.9734 23.3644 24.5378C23.3644 23.6032 23.1517 22.7168 22.7743 21.9211C22.6637 21.9797 22.557 22.0505 22.4562 22.1387C22.0407 22.5011 21.7785 23.0283 21.5935 23.5459C21.2279 24.5681 20.8064 25.7191 19.7375 26.2244C19.1165 26.5179 18.3703 26.5514 17.6966 26.4638C16.9688 26.3692 16.2779 26.1246 15.6062 25.8439C15.0134 25.5961 14.4293 25.3296 13.8062 25.159C13.3887 25.0444 12.9178 24.9685 12.4844 25.0573C12.4548 24.8533 12.439 24.6447 12.439 24.4329C12.439 24.2488 12.2862 24.1001 12.0978 24.1001C11.9095 24.1001 11.7573 24.2495 11.7573 24.4329C11.7573 24.7458 11.7876 25.0515 11.843 25.3496C11.4643 25.6392 11.1956 26.0853 11.0401 26.5147C11.027 26.552 11.0158 26.5894 11.0039 26.6267C11.8818 29.0349 14.2343 30.7594 16.9998 30.7594V30.7587Z" fill="#174365"/>
<path d="M16.9997 32.4858C21.4834 32.4858 25.1307 28.9203 25.1307 24.5385C25.1307 20.1567 21.4834 16.5912 16.9997 16.5912C12.516 16.5912 8.86865 20.1561 8.86865 24.5385C8.86865 28.9209 12.5166 32.4858 16.9997 32.4858ZM16.9997 17.2574C21.1073 17.2574 24.449 20.5236 24.449 24.5385C24.449 28.5533 21.1073 31.8196 16.9997 31.8196C12.892 31.8196 9.5503 28.5533 9.5503 24.5385C9.5503 20.5236 12.892 17.2574 16.9997 17.2574Z" fill="#174365"/>
<path d="M5.09428 22.4052L5.17528 22.4149C5.32874 22.4149 5.46836 22.3125 5.5059 22.1599C6.53199 18.0337 9.77623 14.783 13.9728 13.6764C14.1546 13.6288 14.2619 13.4453 14.2132 13.2676C14.1638 13.09 13.9774 12.9844 13.795 13.0327C9.35802 14.203 5.92806 17.6398 4.84335 22.0022C4.79923 22.1812 4.91119 22.3614 5.09428 22.4046V22.4052Z" fill="#174365"/>
<path d="M6.5603 24.5385C6.5603 30.1646 11.2436 34.742 16.9997 34.742C22.7558 34.742 27.4398 30.1646 27.4398 24.5385C27.4398 18.9124 22.7565 14.3349 16.9997 14.3349C11.2429 14.3349 6.5603 18.9124 6.5603 24.5385ZM16.9997 15.0005C22.3804 15.0005 26.7575 19.2787 26.7575 24.5378C26.7575 29.797 22.3804 34.0751 16.9997 34.0751C11.619 34.0751 7.24195 29.7964 7.24195 24.5378C7.24195 19.2793 11.6196 15.0005 16.9997 15.0005Z" fill="#174365"/>
<path d="M31.5296 21.4448C31.718 21.4448 31.8701 21.2954 31.8701 21.1113V10.8846C31.8701 10.7005 31.7173 10.5512 31.5296 10.5512C31.3419 10.5512 31.1885 10.7005 31.1885 10.8846V21.1113C31.1885 21.2954 31.3413 21.4448 31.5296 21.4448Z" fill="#174365"/>
<path d="M31.5296 26.039C31.718 26.039 31.8701 25.8896 31.8701 25.7062V22.5842C31.8701 22.4001 31.7173 22.2514 31.5296 22.2514C31.3419 22.2514 31.1885 22.4007 31.1885 22.5842V25.7062C31.1885 25.8903 31.3413 26.039 31.5296 26.039Z" fill="#174365"/>
<path d="M2.02914 41.7985C2.2175 41.7985 2.37029 41.6491 2.37029 41.465V29.4275C2.37029 29.2434 2.2175 29.0941 2.02914 29.0941C1.84078 29.0941 1.68799 29.2434 1.68799 29.4275V41.465C1.68799 41.6491 1.84078 41.7985 2.02914 41.7985Z" fill="#174365"/>
<path d="M2.02914 27.9322C2.2175 27.9322 2.37029 27.7828 2.37029 27.5987V21.3984C2.37029 21.2143 2.2175 21.065 2.02914 21.065C1.84078 21.065 1.68799 21.2143 1.68799 21.3984V27.5987C1.68799 27.7828 1.84078 27.9322 2.02914 27.9322Z" fill="#174365"/>
<path d="M5.26932 41.7985H10.8246C11.3073 41.7985 11.6998 41.4148 11.6998 40.943V38.3597C11.6998 37.8879 11.3073 37.5042 10.8246 37.5042H5.26932C4.78657 37.5042 4.39404 37.8879 4.39404 38.3597V40.943C4.39404 41.4148 4.78657 41.7985 5.26932 41.7985ZM11.0182 38.3597V40.943C11.0182 41.0453 10.9293 41.1322 10.8246 41.1322H10.1153C10.1291 41.0711 10.1377 41.008 10.1377 40.943V38.3597C10.1377 38.2947 10.1298 38.2316 10.1153 38.1705H10.8246C10.9293 38.1705 11.0182 38.2574 11.0182 38.3597ZM5.07569 38.3597C5.07569 38.2574 5.1646 38.1705 5.26932 38.1705H9.26238C9.3671 38.1705 9.45601 38.2574 9.45601 38.3597V40.943C9.45601 41.0453 9.3671 41.1322 9.26238 41.1322H5.26932C5.1646 41.1322 5.07569 41.0453 5.07569 40.943V38.3597Z" fill="#174365"/>
<path d="M32.0229 0H1.9771C0.887128 0 0 0.867087 0 1.93244V44.0676C0 45.1329 0.887128 46 1.9771 46H32.0229C33.1129 46 34 45.1329 34 44.0676V1.93244C34 0.867087 33.1129 0 32.0229 0ZM10.7233 0.666247H23.5138V2.59482H10.7233V0.666247ZM10.7233 3.26107H23.5138V8.3342H10.7233V3.26107ZM0.681647 1.93244C0.681647 1.234 1.26253 0.666247 1.9771 0.666247H10.0416V2.8536L10.0324 2.92827L10.0416 3.00294V8.33484H0.681647V1.93244ZM33.3184 44.0676C33.3184 44.7654 32.7375 45.3338 32.0229 45.3338H1.9771C1.26253 45.3338 0.681647 44.766 0.681647 44.0676V43.7895H33.3184V44.0676ZM33.3184 31.7153L30.1143 27.4172C30.0036 27.2685 29.7903 27.2357 29.6381 27.3438C29.486 27.4519 29.4524 27.6605 29.563 27.8092L33.3184 32.8463V34.8869L30.0148 30.4555C29.9042 30.3068 29.6908 30.274 29.5387 30.3821C29.3865 30.4903 29.3529 30.6989 29.4643 30.8475L33.2848 35.9722L33.319 36.0082V38.1479L29.6691 33.2654C29.5578 33.1167 29.3444 33.0838 29.1929 33.1926C29.0408 33.3014 29.0078 33.51 29.1185 33.658L33.3184 39.277V41.5506L29.4392 36.2271C29.3299 36.0771 29.1172 36.0423 28.9637 36.1492C28.8103 36.2561 28.7747 36.464 28.8834 36.614L33.2854 42.6552L33.3177 42.69V43.1226H0.681647V9.00045H33.3184V31.7146V31.7153ZM33.3184 8.3342H24.1955V0.666247H32.0229C32.7375 0.666247 33.3184 1.234 33.3184 1.93244V8.3342Z" fill="#174365"/>
<path d="M8.11925 1.91635H2.56399C2.08124 1.91635 1.68872 2.3 1.68872 2.77185V5.35444C1.68872 5.39048 1.69201 5.42653 1.69597 5.46129H1.68872V6.53823C1.68872 6.95085 2.03251 7.28687 2.45467 7.28687H8.22858C8.65139 7.28687 8.99452 6.95085 8.99452 6.53823V5.46129H8.98728C8.99189 5.42653 8.99452 5.39048 8.99452 5.35444V2.77185C8.99452 2.3 8.602 1.91635 8.11925 1.91635ZM8.31288 6.53888C8.31288 6.58329 8.27402 6.62127 8.22858 6.62127H2.45467C2.40922 6.62127 2.37037 6.58329 2.37037 6.53888V6.20607L2.45467 6.21058H8.22858L8.31288 6.20607V6.53888ZM8.31288 5.35508C8.31288 5.45743 8.22397 5.54433 8.11925 5.54433H2.56399C2.45928 5.54433 2.37037 5.45743 2.37037 5.35508V2.77249C2.37037 2.66949 2.45928 2.58324 2.56399 2.58324H8.11925C8.22397 2.58324 8.31288 2.67014 8.31288 2.77249V5.35508Z" fill="#174365"/>
<path d="M14.8375 5.41044C14.8329 5.37375 14.827 5.33705 14.8204 5.30036L14.8092 5.245C14.8006 5.20702 14.7907 5.16969 14.7796 5.133L14.767 5.09115C14.7506 5.04094 14.7321 4.99138 14.7117 4.9431L14.7005 4.91993C14.6821 4.87873 14.6623 4.83882 14.6412 4.79955L14.6208 4.76286C14.6004 4.72681 14.578 4.69141 14.555 4.65729L14.5346 4.62704C14.5056 4.58519 14.4746 4.54464 14.4417 4.50537L14.4384 4.50151C14.4022 4.45838 14.3633 4.41718 14.3231 4.37792L14.3179 4.37341C14.2823 4.33865 14.2448 4.30582 14.2059 4.27363L14.173 4.24789C14.1433 4.22471 14.1124 4.20218 14.0808 4.1803L14.034 4.14875L13.9484 4.0979L13.8911 4.06571L13.8193 4.0316C13.7673 4.00714 13.7139 3.98525 13.6593 3.96594L13.6231 3.95242H13.6198C13.4393 3.89255 13.2463 3.85908 13.0455 3.85908C12.049 3.85908 11.2383 4.6515 11.2383 5.62544C11.2383 5.70526 11.2455 5.78251 11.2561 5.85975V5.86297L11.2587 5.87778C11.2659 5.92606 11.2745 5.97433 11.2857 6.02197L11.2883 6.03098C11.3759 6.39339 11.5775 6.71268 11.8554 6.9515L11.86 6.956C11.8969 6.98754 11.9351 7.01651 11.9739 7.04484L11.9884 7.05578C12.0253 7.08217 12.0635 7.10663 12.103 7.13045L12.1267 7.14461C12.1643 7.1665 12.2018 7.18645 12.2413 7.20576L12.2756 7.22186C12.3125 7.23924 12.35 7.25533 12.3882 7.26949L12.4349 7.28623C12.4705 7.29846 12.5054 7.31069 12.5416 7.32099L12.6062 7.33708C12.6385 7.34481 12.6701 7.35318 12.703 7.35961C12.7333 7.36541 12.7642 7.36927 12.7945 7.37313L12.8709 7.38343C12.9282 7.38922 12.9869 7.3918 13.0455 7.3918C14.0419 7.3918 14.8527 6.59938 14.8527 5.62544C14.8527 5.57008 14.8494 5.51601 14.8441 5.46194L14.8375 5.41044ZM12.0622 5.56107C12.0161 5.56107 11.97 5.55527 11.9239 5.54948C11.9641 4.9785 12.4508 4.52533 13.0455 4.52533C13.0929 4.52533 13.1383 4.52919 13.1844 4.53434C13.1456 5.1066 12.6582 5.56042 12.0628 5.56042L12.0622 5.56107ZM13.0448 6.72555C13 6.72555 12.9559 6.72233 12.9118 6.71718L12.8775 6.71203C12.8439 6.70688 12.8103 6.70109 12.7781 6.69337L12.7478 6.68564C12.7096 6.67534 12.6727 6.66376 12.6358 6.64959L12.6266 6.64637C12.5416 6.6129 12.4613 6.56977 12.3882 6.51763H12.3875C12.3513 6.49124 12.3164 6.46292 12.2828 6.4333L12.2808 6.43137C12.2137 6.37086 12.1544 6.30199 12.1037 6.22731C12.9493 6.208 13.6534 5.61836 13.8272 4.83753L13.8331 4.84332L13.8707 4.88259L13.9082 4.9225L13.9392 4.96177L13.9741 5.00747L14.0024 5.05253L14.0314 5.09888L14.0604 5.15681L14.0795 5.19479L14.1084 5.27204L14.1177 5.2965C14.1275 5.3274 14.1361 5.35959 14.1433 5.39177L14.146 5.40271C14.1532 5.43812 14.1592 5.47417 14.1631 5.51021V5.51215C14.1677 5.54948 14.1697 5.58682 14.1697 5.6248C14.1697 6.23118 13.6652 6.72491 13.0442 6.72491L13.0448 6.72555Z" fill="#174365"/>
<path d="M18.7534 5.41044C18.7488 5.37375 18.7429 5.33706 18.7363 5.30036L18.7251 5.245C18.7165 5.20703 18.7067 5.16969 18.6955 5.133L18.6836 5.09116C18.6672 5.04095 18.6487 4.99138 18.6276 4.9431L18.6171 4.92121C18.5987 4.87937 18.5782 4.83882 18.5565 4.79891L18.5367 4.7635C18.5157 4.72681 18.4933 4.69141 18.4702 4.656L18.4511 4.62704C18.4215 4.58455 18.3899 4.54335 18.3563 4.50344L18.355 4.50151C18.3181 4.45838 18.2799 4.41654 18.2391 4.37663L18.2364 4.37406C18.1995 4.33865 18.1613 4.30453 18.1218 4.27235L18.0909 4.24789C18.0599 4.22407 18.029 4.2009 17.9967 4.17901L17.9519 4.1494C17.9229 4.13073 17.894 4.11399 17.8637 4.09726L17.809 4.06636L17.7293 4.02902C17.6799 4.00649 17.6292 3.98589 17.5778 3.96723L17.5403 3.95306H17.537C17.3565 3.8932 17.1636 3.85973 16.9627 3.85973C15.9662 3.85973 15.1555 4.65214 15.1555 5.62608C15.1555 5.70591 15.1628 5.78315 15.1733 5.8604V5.86362L15.1759 5.87842C15.1832 5.9267 15.1917 5.97498 15.2029 6.02261L15.2056 6.03163C15.2932 6.39468 15.4947 6.71397 15.772 6.95214L15.7766 6.95665C15.8135 6.98819 15.851 7.01716 15.8905 7.04548L15.905 7.05642C15.9425 7.08282 15.9807 7.10728 16.0196 7.13109L16.0433 7.14526C16.0808 7.16714 16.119 7.1871 16.1579 7.20641L16.1921 7.2225C16.229 7.23988 16.2659 7.25598 16.3041 7.27014L16.3515 7.28687C16.3864 7.2991 16.422 7.31134 16.4582 7.32163L16.5228 7.33773C16.555 7.34545 16.5866 7.35382 16.6196 7.36026C16.6499 7.36605 16.6802 7.36991 16.7111 7.37378L16.7875 7.38408C16.8448 7.38987 16.9034 7.39244 16.962 7.39244C17.9585 7.39244 18.7692 6.60003 18.7692 5.62608C18.7692 5.57073 18.7659 5.51665 18.7607 5.46258L18.7547 5.41108L18.7534 5.41044ZM15.9788 5.56107C15.9327 5.56107 15.8859 5.55528 15.8398 5.55013C15.88 4.97915 16.3667 4.52597 16.9614 4.52597C17.0088 4.52597 17.0549 4.52983 17.1004 4.53498C17.0615 5.10725 16.5741 5.56107 15.9788 5.56107ZM16.9614 6.72555C16.9166 6.72555 16.8725 6.72233 16.829 6.71718L16.7954 6.71203C16.7618 6.70689 16.7282 6.70109 16.696 6.69337L16.6657 6.68564C16.6275 6.67534 16.5906 6.66376 16.5537 6.64959L16.5452 6.64638C16.4602 6.6129 16.3798 6.56977 16.3067 6.51763H16.3054C16.2692 6.49124 16.2343 6.46292 16.2014 6.43331L16.1987 6.43073C16.1316 6.37022 16.0723 6.30134 16.0222 6.22667C16.8679 6.20736 17.5719 5.61772 17.7458 4.83689L17.7517 4.84268L17.7892 4.88195L17.8261 4.92186L17.8571 4.96177L17.892 5.00747L17.9203 5.05189L17.9493 5.09824L17.9783 5.15617L17.9974 5.19415L18.027 5.27204L18.0362 5.29586C18.0461 5.32676 18.0547 5.35894 18.0619 5.39113L18.0645 5.40207C18.0797 5.47417 18.0876 5.54884 18.0876 5.6248C18.0876 6.23118 17.5831 6.72491 16.962 6.72491L16.9614 6.72555Z" fill="#174365"/>
<path d="M22.6262 5.41044C22.6215 5.37375 22.6156 5.33705 22.609 5.30036L22.5978 5.245C22.5893 5.20702 22.5794 5.16969 22.5682 5.133L22.5557 5.09115C22.5392 5.04094 22.5208 4.99138 22.5004 4.9431L22.4892 4.91993C22.4707 4.87873 22.451 4.83882 22.4299 4.79955L22.4095 4.76286C22.3891 4.72681 22.3667 4.69141 22.3436 4.65729L22.3232 4.62704C22.2936 4.58519 22.2633 4.54464 22.2303 4.50537L22.227 4.50151C22.1908 4.45838 22.1526 4.41718 22.1118 4.37792L22.1065 4.37341C22.071 4.33865 22.0334 4.30582 21.9946 4.27363L21.9616 4.24789C21.9313 4.22471 21.901 4.20218 21.8694 4.1803L21.8227 4.14875L21.7377 4.0979L21.6804 4.06571L21.6086 4.0316C21.5566 4.00714 21.5032 3.98525 21.4486 3.96594L21.4124 3.95242H21.4091C21.228 3.89255 21.0356 3.85908 20.8348 3.85908C19.8383 3.85908 19.0276 4.6515 19.0276 5.62544C19.0276 5.70526 19.0348 5.78251 19.0454 5.85975V5.86297L19.048 5.87778C19.0552 5.92606 19.0638 5.97433 19.075 6.02197L19.0776 6.03098C19.1652 6.39339 19.3668 6.71268 19.6447 6.9515L19.6493 6.956C19.6862 6.98754 19.7244 7.01651 19.7632 7.04484L19.7777 7.05578C19.8153 7.08217 19.8528 7.10663 19.8923 7.13045L19.916 7.14461C19.9536 7.1665 19.9918 7.18645 20.0306 7.20576L20.0649 7.22186C20.1018 7.23924 20.1386 7.25533 20.1768 7.26949L20.2243 7.28623C20.2592 7.29846 20.2947 7.31069 20.3309 7.32099L20.3955 7.33708C20.4278 7.34481 20.4594 7.35318 20.4923 7.35961C20.5226 7.36541 20.5529 7.36927 20.5838 7.37313L20.6602 7.38343C20.7175 7.38922 20.7762 7.3918 20.8348 7.3918C21.8312 7.3918 22.642 6.59938 22.642 5.62544C22.642 5.57008 22.6387 5.51601 22.6334 5.46194L22.6275 5.41044H22.6262ZM19.8515 5.56107C19.8054 5.56107 19.7586 5.55527 19.7125 5.54948C19.7527 4.9785 20.2394 4.52533 20.8341 4.52533C20.8815 4.52533 20.9276 4.52919 20.9731 4.53434C20.9342 5.1066 20.4469 5.56042 19.8515 5.56042V5.56107ZM20.8341 6.72555C20.7893 6.72555 20.7452 6.72233 20.7017 6.71718L20.6681 6.71203C20.6346 6.70688 20.601 6.70109 20.5687 6.69337L20.5384 6.68564C20.5002 6.67534 20.4633 6.66376 20.4264 6.64959L20.4172 6.64637C20.3323 6.6129 20.2519 6.56977 20.1788 6.51763H20.1782C20.1413 6.49124 20.107 6.46292 20.0734 6.4333L20.0715 6.43137C20.0043 6.37086 19.945 6.30199 19.8943 6.22731C20.7399 6.208 21.444 5.61836 21.6178 4.83753L21.6238 4.84332L21.6613 4.88259L21.6989 4.9225L21.7298 4.96177L21.7647 5.00747L21.793 5.05253L21.822 5.09888L21.851 5.15681L21.8701 5.19479L21.8991 5.27204L21.9083 5.2965C21.9182 5.3274 21.9267 5.35959 21.9333 5.39177L21.9359 5.40271C21.9432 5.43812 21.9491 5.47417 21.9531 5.51021V5.51215C21.9577 5.54948 21.959 5.58682 21.959 5.6248C21.959 6.23118 21.4545 6.72491 20.8335 6.72491L20.8341 6.72555Z" fill="#174365"/>
<path d="M25.4692 5.65312H31.9675C32.1559 5.65312 32.3087 5.50378 32.3087 5.31968V2.27103C32.3087 2.08693 32.1559 1.93759 31.9675 1.93759H25.4692C25.2808 1.93759 25.1287 2.08693 25.1287 2.27103V5.31968C25.1287 5.50378 25.2815 5.65312 25.4692 5.65312ZM28.471 4.98687H27.4397V3.93826H28.471V4.98687ZM30.184 4.98687H29.1527V3.93826H30.184V4.98687ZM31.627 4.98687H30.8663V3.93826H31.627V4.98687ZM25.8097 2.60448H31.6264V3.27201H25.8097V2.60448ZM25.8097 3.93826H26.7574V4.98687H25.8097V3.93826Z" fill="#174365"/>
<path d="M32.1236 6.42751H25.4692C25.2808 6.42751 25.1287 6.57685 25.1287 6.76031C25.1287 6.94377 25.2815 7.09376 25.4692 7.09376H32.1236C32.312 7.09376 32.4648 6.94442 32.4648 6.76031C32.4648 6.57621 32.312 6.42751 32.1236 6.42751Z" fill="#174365"/>
<path d="M16.9996 30.7587C20.5145 30.7587 23.3643 27.974 23.3643 24.5378C23.3643 23.6032 23.1522 22.7174 22.7742 21.9218C22.6635 21.9804 22.5568 22.0512 22.4561 22.1394C22.0405 22.5018 21.7784 23.029 21.5933 23.5465C21.2284 24.5687 20.8063 25.7197 19.738 26.225C19.117 26.5186 18.3708 26.552 17.697 26.4645C16.9693 26.3699 16.2784 26.1252 15.6067 25.8446C15.0139 25.5968 14.4298 25.3303 13.8067 25.1597C13.3892 25.0451 12.9183 24.9691 12.4849 25.058C12.7971 27.2215 14.7024 28.8913 17.0009 28.8913C17.1893 28.8913 17.3421 29.0406 17.3421 29.2247C17.3421 29.4088 17.1893 29.5582 17.0009 29.5582C14.4298 29.5582 12.2867 27.7397 11.8434 25.3502C11.4648 25.6399 11.196 26.086 11.0406 26.5153C11.0274 26.5527 11.0162 26.59 11.0044 26.6273C11.8823 29.0355 14.2348 30.76 17.0003 30.76L16.9996 30.7587Z" fill="#174365"/>
<path d="M16.9997 32.4852C21.4834 32.4852 25.1307 28.9203 25.1307 24.5378C25.1307 20.1554 21.4834 16.5905 16.9997 16.5905C12.516 16.5905 8.86865 20.1554 8.86865 24.5378C8.86865 28.9203 12.516 32.4852 16.9997 32.4852ZM16.9997 17.2574C21.1073 17.2574 24.449 20.5236 24.449 24.5385C24.449 28.5533 21.1073 31.8196 16.9997 31.8196C12.892 31.8196 9.5503 28.5533 9.5503 24.5385C9.5503 20.5236 12.892 17.2574 16.9997 17.2574Z" fill="#174365"/>
<path d="M5.09418 22.4052L5.17519 22.4149C5.32864 22.4149 5.46826 22.3125 5.50646 22.1606C6.53189 18.0344 9.77614 14.7836 13.9734 13.6771C14.1551 13.6288 14.2625 13.446 14.2138 13.2683C14.165 13.0906 13.978 12.9851 13.7962 13.0333C9.35924 14.2036 5.92928 17.6404 4.84457 22.0029C4.80045 22.1818 4.91241 22.3621 5.0955 22.4052H5.09418Z" fill="#174365"/>
<path d="M6.5603 24.5378C6.5603 30.1646 11.2436 34.7414 16.9997 34.7414C22.7558 34.7414 27.4391 30.1639 27.4391 24.5378C27.4391 18.9118 22.7558 14.3343 16.9997 14.3343C11.2436 14.3343 6.5603 18.9118 6.5603 24.5378ZM16.9997 15.0005C22.3804 15.0005 26.7575 19.2787 26.7575 24.5378C26.7575 29.797 22.3804 34.0751 16.9997 34.0751C11.619 34.0751 7.24195 29.7964 7.24195 24.5378C7.24195 19.2793 11.619 15.0005 16.9997 15.0005Z" fill="#174365"/>
<path d="M31.5297 21.4448C31.7181 21.4448 31.8709 21.2954 31.8709 21.112V10.8852C31.8709 10.7011 31.7181 10.5518 31.5297 10.5518C31.3413 10.5518 31.1892 10.7011 31.1892 10.8852V21.112C31.1892 21.2961 31.342 21.4448 31.5297 21.4448Z" fill="#174365"/>
<path d="M31.5297 26.039C31.7181 26.039 31.8709 25.8896 31.8709 25.7055V22.5842C31.8709 22.4001 31.7181 22.2507 31.5297 22.2507C31.3413 22.2507 31.1892 22.4001 31.1892 22.5842V25.7055C31.1892 25.8896 31.342 26.039 31.5297 26.039Z" fill="#174365"/>
<path d="M2.02914 41.7985C2.2175 41.7985 2.37029 41.6491 2.37029 41.4657V29.4282C2.37029 29.2441 2.2175 29.0947 2.02914 29.0947C1.84078 29.0947 1.68799 29.2441 1.68799 29.4282V41.4657C1.68799 41.6498 1.84078 41.7985 2.02914 41.7985Z" fill="#174365"/>
<path d="M2.02921 27.9322C2.21757 27.9322 2.37037 27.7828 2.37037 27.5987V21.3984C2.37037 21.2143 2.21757 21.065 2.02921 21.065C1.84086 21.065 1.68872 21.2143 1.68872 21.3984V27.5987C1.68872 27.7828 1.84151 27.9322 2.02921 27.9322Z" fill="#174365"/>
<path d="M5.26932 41.7985H10.8246C11.3073 41.7985 11.6998 41.4148 11.6998 40.943V38.3604C11.6998 37.8885 11.3073 37.5049 10.8246 37.5049H5.26932C4.78657 37.5049 4.39404 37.8885 4.39404 38.3604V40.943C4.39404 41.4148 4.78657 41.7985 5.26932 41.7985ZM10.1153 38.1705H10.8246C10.9293 38.1705 11.0182 38.2567 11.0182 38.3597V40.9423C11.0182 41.0453 10.9293 41.1316 10.8246 41.1316H10.1153C10.1298 41.0704 10.1377 41.0073 10.1377 40.9423V38.3597C10.1377 38.2947 10.1298 38.2316 10.1153 38.1705ZM5.07569 38.3597C5.07569 38.2567 5.1646 38.1705 5.26932 38.1705H9.26238C9.3671 38.1705 9.45601 38.2567 9.45601 38.3597V40.9423C9.45601 41.0453 9.3671 41.1316 9.26238 41.1316H5.26932C5.1646 41.1316 5.07569 41.0447 5.07569 40.9423V38.3597Z" fill="#174365"/>
<path d="M16.9996 29.5575C17.188 29.5575 17.3408 29.4082 17.3408 29.2241C17.3408 29.04 17.188 28.8907 16.9996 28.8907C14.7018 28.8907 12.7958 27.2209 12.4836 25.0573C12.454 24.8533 12.4382 24.6447 12.4382 24.4329C12.4382 24.2488 12.2854 24.0995 12.097 24.0995C11.9087 24.0995 11.7559 24.2488 11.7559 24.4329C11.7559 24.7458 11.7862 25.0515 11.8415 25.3496C12.2847 27.7397 14.4278 29.5575 16.9989 29.5575H16.9996Z" fill="white"/>
</g>
<defs>
<clipPath id="clip0_65_2">
<rect width="34" height="46" fill="white"/>
</clipPath>
</defs>
</svg>
