<svg width="47" height="54" viewBox="0 0 47 54" fill="none" xmlns="http://www.w3.org/2000/svg">
<path d="M20.1033 52.5824C21.2259 52.7553 22.3829 52.8418 23.5572 52.8418C35.9567 52.8418 46.0075 42.7748 46.0075 30.3553C46.0075 17.9358 35.9567 7.86877 23.5572 7.86877C11.1577 7.86877 1.10692 17.9358 1.10692 30.3553C1.10692 39.0385 6.01145 46.5629 13.1955 50.3164" stroke="white" stroke-width="0.777126" stroke-linecap="round" stroke-linejoin="round"/>
<path d="M18.3764 8.47416V6.13903C18.3764 3.26767 20.6905 0.949829 23.5572 0.949829C26.424 0.949829 28.7381 3.26767 28.7381 6.13903V8.47416" stroke="white" stroke-width="0.777126" stroke-linecap="round" stroke-linejoin="round"/>
<path d="M33.9189 19.9769L18.3764 25.1661L13.1956 40.7337L28.7381 35.5445L33.9189 19.9769Z" stroke="white" stroke-width="0.777126" stroke-linecap="round" stroke-linejoin="round"/>
<path d="M18.3764 25.1661L28.7381 35.5445" stroke="white" stroke-width="0.777126" stroke-linecap="round" stroke-linejoin="round"/>
</svg>
