<svg width="43" height="43" viewBox="0 0 43 43" fill="none" xmlns="http://www.w3.org/2000/svg">
<g clip-path="url(#clip0_44_112)">
<path d="M26.9025 42.8609H16.2793V38.9806C15.1811 38.6438 14.1049 38.1972 13.0799 37.6555L10.3344 40.401L2.82275 32.8893L5.56824 30.1438C5.02646 29.1261 4.57986 28.0499 4.24308 26.9444H0.355469V16.3212H4.23576C4.57254 15.2157 5.01914 14.1394 5.56091 13.1218L2.81543 10.3763L10.3271 2.86464L13.0726 5.61013C14.0976 5.06103 15.1738 4.62175 16.272 4.28497V0.397362H26.8952V4.27765C28.0007 4.61443 29.0769 5.06103 30.0946 5.60281L32.8401 2.85732L40.3517 10.369L37.6063 13.1145C38.148 14.1394 38.5946 15.2084 38.9314 16.3139H42.8117V26.9371H38.9314C38.5946 28.0426 38.148 29.1115 37.6063 30.1365L40.3517 32.882L32.8401 40.3936L30.0946 37.6481C29.0696 38.1899 28.0007 38.6365 26.8952 38.9733V42.8536L26.9025 42.8609ZM18.4684 40.6645H24.6988V37.3187L25.8336 37.0039C27.0855 36.6598 28.3009 36.1546 29.443 35.5103L30.468 34.9319L32.8328 37.2967L37.2402 32.8893L34.8754 30.5245L35.4611 29.4995C36.1054 28.3574 36.6106 27.1494 36.9547 25.8901L37.2695 24.7553H40.6153V18.5249H37.2695L36.9547 17.3901C36.6106 16.1382 36.1054 14.9228 35.4611 13.7807L34.8827 12.7557L37.2475 10.3909L32.8401 5.98351L30.4753 8.34829L29.4503 7.76259C28.3155 7.11832 27.1002 6.61315 25.8409 6.26905L24.7061 5.95423V2.59375H18.4757V5.93959L17.3409 6.2544C16.0889 6.5985 14.8736 7.10367 13.7315 7.74795L12.7065 8.33365L10.3344 5.96887L5.92698 10.3763L8.29908 12.7484L7.71338 13.7734C7.0691 14.9009 6.57125 16.1162 6.21983 17.3828L5.90502 18.5176H2.55186V24.748H5.89769L6.21251 25.8828C6.56393 27.1421 7.06178 28.3574 7.70606 29.4922L8.29176 30.5172L5.91966 32.8893L10.3271 37.2967L12.6919 34.9319L13.7168 35.5103C14.859 36.1619 16.0743 36.6598 17.3262 37.0039L18.461 37.3187V40.6645H18.4684ZM21.5872 30.444C16.7259 30.444 12.7724 26.4905 12.7724 21.6291C12.7724 16.7678 16.7259 12.8143 21.5872 12.8143C26.4486 12.8143 30.4021 16.7678 30.4021 21.6291C30.4021 26.4905 26.4486 30.444 21.5872 30.444ZM21.5872 15.0107C17.9412 15.0107 14.9688 17.9758 14.9688 21.6291C14.9688 25.2825 17.9339 28.2476 21.5872 28.2476C25.2406 28.2476 28.2057 25.2825 28.2057 21.6291C28.2057 17.9758 25.2406 15.0107 21.5872 15.0107Z" fill="#092649"/>
</g>
<defs>
<clipPath id="clip0_44_112">
<rect width="42.4635" height="42.4635" fill="white" transform="translate(0.355469 0.397339)"/>
</clipPath>
</defs>
</svg>
