<svg width="46" height="42" viewBox="0 0 46 42" fill="none" xmlns="http://www.w3.org/2000/svg">
<path d="M12.4207 41.5134C12.4207 35.6538 17.1689 30.8978 23.0362 30.8978C28.8958 30.8978 33.6518 35.6461 33.6518 41.5134H12.4207Z" stroke="white" stroke-width="0.777126" stroke-linecap="round" stroke-linejoin="round"/>
<path d="M23.0363 30.9055C26.414 30.9055 29.1523 28.1673 29.1523 24.7896C29.1523 21.4118 26.414 18.6736 23.0363 18.6736C19.6585 18.6736 16.9203 21.4118 16.9203 24.7896C16.9203 28.1673 19.6585 30.9055 23.0363 30.9055Z" stroke="white" stroke-width="0.777126" stroke-linecap="round" stroke-linejoin="round"/>
<path d="M14.9929 17.4534C17.0834 15.6039 19.8267 14.4771 22.8341 14.4771C25.8261 14.4771 28.5616 15.5883 30.6443 17.4224" stroke="white" stroke-width="0.777126" stroke-linecap="round" stroke-linejoin="round"/>
<path d="M25.0036 14.0849C28.194 12.887 29.8091 9.32965 28.6112 6.13932C27.4133 2.94899 23.856 1.33381 20.6657 2.5317C17.4753 3.7296 15.8601 7.28696 17.058 10.4773C18.2559 13.6676 21.8133 15.2828 25.0036 14.0849Z" stroke="white" stroke-width="0.777126" stroke-linecap="round" stroke-linejoin="round"/>
<path d="M30.5044 31.1155C32.0665 29.7012 34.1414 28.8463 36.4106 28.8463C41.2832 28.8463 45.231 32.7941 45.231 37.6667H35.4703" stroke="white" stroke-width="0.777126" stroke-linecap="round" stroke-linejoin="round"/>
<path d="M41.4929 23.756C41.4929 26.5614 39.216 28.8384 36.4105 28.8384C33.6051 28.8384 31.3281 26.5614 31.3281 23.756C31.3281 20.9506 33.6051 18.6736 36.4105 18.6736C39.216 18.6736 41.4929 20.9506 41.4929 23.756Z" stroke="white" stroke-width="0.777126" stroke-linecap="round" stroke-linejoin="round"/>
<path d="M15.4748 31.1155C13.9128 29.7012 11.8378 28.8463 9.56863 28.8463C4.69605 28.8463 0.748245 32.7941 0.748245 37.6667H10.5089" stroke="white" stroke-width="0.777126" stroke-linecap="round" stroke-linejoin="round"/>
<path d="M4.47849 23.756C4.47849 26.5614 6.75547 28.8384 9.5609 28.8384C12.3663 28.8384 14.6433 26.5614 14.6433 23.756C14.6433 20.9506 12.3663 18.6736 9.5609 18.6736C6.75547 18.6736 4.47849 20.9506 4.47849 23.756Z" stroke="white" stroke-width="0.777126" stroke-linecap="round" stroke-linejoin="round"/>
</svg>
